<svg xmlns="http://www.w3.org/2000/svg" height="800" width="1200" xml:space="preserve" y="0" x="0" id="Capa_1" version="1.1" viewBox="-326.46315 -139.7595 2829.3473 838.557">
	<style id="style16834" type="text/css">
		.st10{fill:#e10e20 !important}.st11{fill:#fff !important}.st12{fill:#020203 !important}
	</style>
	<g transform="translate(-78.98 -58.762)" id="g16980">
		<g id="g16928">
			<ellipse id="ellipse16836" ry="249.4" rx="214" cy="310.4" cx="297" class="st10" />
			<path id="path16838" d="M147.6 434.7c-20.5-35.2-32.6-78-32.6-124.2s12.1-89 32.6-124.2z" class="st11" />
			<path id="path16840" d="M193.6 131.5c11.8-9.8 24.7-18 38.4-24.2v406.3c-13.7-6.2-26.5-14.4-38.4-24.2z" class="st11" />
			<path id="path16842" d="M277.9 94.1c6.3-.8 12.7-1.2 19.1-1.2 6.5 0 12.9.4 19.2 1.2v432.6c-6.3.8-12.7 1.2-19.2 1.2s-12.8-.4-19.1-1.2z" class="st11" />
			<path id="path16844" d="M362.2 107.3c13.7 6.3 26.5 14.4 38.4 24.3v357.7c-11.8 9.8-24.7 18-38.4 24.3z" class="st11" />
			<path id="path16846" d="M446.5 186.4c20.5 35.2 32.5 77.9 32.5 124 0 46.1-12 88.8-32.5 124z" class="st11" />
			<path id="path16848" d="M101 310.4c0-57.2 17.6-109.5 46.6-149.9v13.6c-24.4 37.7-39 85-39 136.3 0 51.3 14.5 98.5 39 136.3v13.6c-29-40.4-46.6-92.7-46.6-149.9z" class="st11" />
			<path id="path16850" d="M446.5 446.5c24.4-37.7 38.8-84.9 38.8-136.1 0-51.2-14.5-98.4-38.8-136.1v-13.7c29 40.4 46.5 92.6 46.5 149.7 0 57.1-17.5 109.4-46.5 149.7z" class="st11" />
			<path id="path16852" d="M505.5 533.7c1.5-6.3 4.4-12.7 7.9-17.8-4.4-2.2-8.1-3.8-12-7.1 8.5-12.8 10.6-21.6 12-37l-.6-87.2c-5.6 25.4-19.1 58.6-30.8 76-3.4 5.1-4.9 8.3-7 11.7-1.2 2-8.1 13.3-7.9 27.1-4.8 1-9.2.8-14.8.4.7 6 1.1 6.9-.5 16.8-21.1 1.6-27.3 14.3-52.4 27.9-12.2 6.6-20.2 9.6-38.5 16.3 42.6-.5 73.9 5.5 100.6-12.5 3 4 5.3 7.9 7.3 12.7 3.7-2.9 10.9-6.5 16.9-8 6.9 6.8 16.1 9.5 27.9 8.4 1.8-9.5-.6-21.2-8.1-27.7z" class="st10" />
			<path id="path16854" d="M508.8 517.6c-3.3 1.3-18.8 7.1-18.8 7.1l-.2.2c-.1-1.4-.4-2.7-1-4l-.1-.3c6-3.6 9.8-8.7 9.8-9.4 0-.1-.1-.1 0-.1v.1c.5.7 5.6 5.5 10.3 6.4z" class="st11" />
			<path id="path16856" d="M495.9 444c15.6-34.5 11.9-33 15.4-47.3-.5 6.9-.9 15.6-1.9 21.9-6.8 37.5-16.5 65.4-28.3 96.1 0 0-3.2-.3-4.8 0-2.8-3.3-3.7-7.8-3.7-7.8-5.5-22.7 11.5-36.8 23.3-62.9z" class="st11" />
			<path id="path16858" d="M456.9 504.4l14.5 12.1v.1c-.4.3-.9.7-1.3 1.1-.7.7-1.3 1.5-1.8 2.4l-.1.2c-7.4-3.6-12.4-3.8-12.4-3.8 2-7.9 1.1-12.1 1.1-12.1z" class="st11" />
			<path id="path16860" d="M390.9 556.8c-7.3 1.7-13.2 1.6-17.8 1.8l15.5-4.8c33.6-12.6 42.1-32.1 64.8-32.5 5.3.1 9.7 1.4 13.6 3.7v.6c-.2 1.5 0 2.9.4 4.3v.2c-15.7 7.7-51.5 20.9-76.5 26.7z" class="st11" />
			<path id="path16862" d="M470.6 555.8c-.9-2.4-2.1-6.3-5.6-10.1 4.7-4 5.6-6.1 7.2-10l.1.1c1.5.9 3.1 1.4 4.7 1.5h.2z" class="st11" />
			<path id="path16864" d="M473.6 530.5a6.64 6.64 0 010-9.4c2.6-2.6 6.8-2.6 9.4 0 2.6 2.6 2.6 6.8 0 9.4a6.64 6.64 0 01-9.4 0z" class="st11" />
			<path id="path16866" d="M488 549.1c-3.4-4-4.9-7.1-6.2-12.5 1.7-.5 3.7-1.5 4.9-3.2L510 557c-8.9.8-16.5-1.2-22-7.9z" class="st11" />
			<path id="path16868" d="M513.7 59.1c-11.8-1.1-21 1.6-27.9 8.4-6-1.5-13.2-5.1-16.9-8-2 4.7-4.3 8.7-7.3 12.7-26.8-18-58-11.9-100.6-12.5 18.3 6.7 26.3 9.7 38.5 16.3 25.1 13.5 31.2 26.2 52.4 27.9 1.6 9.9 1.2 10.7.5 16.8 5.6-.4 10-.6 14.8.4-.2 13.9 6.7 25.2 7.9 27.1 2.1 3.4 3.6 6.6 7 11.7 11.7 17.4 25.2 50.6 30.8 76l.6-87.2c-1.4-15.4-3.5-24.2-12-37 3.8-3.3 7.6-5 12-7.1-3.4-5.1-6.4-11.5-7.9-17.8 7.4-6.5 9.8-18.2 8.1-27.7z" class="st10" />
			<path id="path16870" d="M508.8 102.8c-3.3-1.3-18.8-7.1-18.8-7.1l-.2-.2c-.1 1.4-.4 2.7-1 4l-.1.3c6 3.6 9.8 8.7 9.8 9.4 0 .1-.1.1 0 .1v-.1c.5-.7 5.6-5.4 10.3-6.4z" class="st11" />
			<path id="path16872" d="M495.9 176.5c15.6 34.5 11.9 33 15.4 47.3-.5-6.9-.9-15.6-1.9-21.9-6.8-37.5-16.5-65.4-28.3-96.1 0 0-3.2.3-4.8 0-2.8 3.3-3.7 7.8-3.7 7.8-5.5 22.6 11.5 36.7 23.3 62.9z" class="st11" />
			<path id="path16874" d="M456.9 116l14.5-12.1v-.1c-.4-.3-.9-.7-1.3-1.1-.7-.7-1.3-1.5-1.8-2.4l-.1-.2c-7.4 3.6-12.4 3.8-12.4 3.8 2 7.9 1.1 12.1 1.1 12.1z" class="st11" />
			<path id="path16876" d="M390.9 63.7c-7.3-1.7-13.2-1.6-17.8-1.8l15.5 4.8c33.6 12.6 42.1 32.1 64.8 32.5 5.3-.1 9.7-1.4 13.6-3.7v-.6c-.2-1.5 0-2.9.4-4.3v-.2c-15.7-7.8-51.5-21-76.5-26.7z" class="st11" />
			<path id="path16878" d="M470.6 64.7c-.9 2.4-2.1 6.3-5.6 10.1 4.7 4 5.6 6.1 7.2 10l.1-.1c1.5-.9 3.1-1.4 4.7-1.5h.2z" class="st11" />
			<circle r="6.6" id="ellipse16880" cy="94.6" cx="478.3" class="st11" transform="rotate(-45.17 478.308 94.624)" />
			<path id="path16882" d="M488 71.4c-3.4 4-4.9 7.1-6.2 12.5 1.7.5 3.7 1.5 4.9 3.2L510 63.4c-8.9-.8-16.5 1.3-22 8z" class="st11" />
			<path id="path16884" d="M79.5 561.4c11.8 1.1 21.1-1.6 27.9-8.4 6 1.6 13.2 5.1 16.9 8 2-4.7 4.3-8.7 7.3-12.7 26.8 18 58 11.9 100.6 12.5-18.3-6.7-26.3-9.7-38.5-16.3-25.1-13.5-31.2-26.2-52.4-27.9-1.6-9.9-1.2-10.7-.5-16.8-5.6.4-10 .6-14.8-.4.2-13.9-6.7-25.2-7.9-27.1-2.1-3.4-3.6-6.6-7-11.7-11.7-17.4-25.2-50.6-30.8-76l-.6 87.2c1.4 15.4 3.5 24.2 12 37-3.8 3.3-7.6 5-12 7.1 3.4 5.1 6.4 11.5 7.9 17.8-7.4 6.5-9.8 18.2-8.1 27.7z" class="st10" />
			<path id="path16886" d="M84.4 517.6c3.3 1.3 18.8 7.1 18.8 7.1l.2.2c.1-1.4.4-2.7 1-4l.1-.3c-6-3.6-9.8-8.7-9.8-9.4 0-.1.1-.1 0-.1v.1c-.5.7-5.6 5.5-10.3 6.4z" class="st11" />
			<path id="path16888" d="M97.3 444c-15.6-34.5-11.9-33-15.4-47.3.4 6.9.9 15.6 1.9 21.9 6.8 37.5 16.5 65.4 28.3 96.1 0 0 3.2-.3 4.8 0 2.8-3.3 3.7-7.8 3.7-7.8 5.5-22.7-11.5-36.8-23.3-62.9z" class="st11" />
			<path id="path16890" d="M136.3 504.4l-14.5 12.1-.1.1c.4.3.9.7 1.3 1.1.7.7 1.3 1.5 1.8 2.4l.1.2c7.4-3.6 12.4-3.8 12.4-3.8-1.9-7.9-1-12.1-1-12.1z" class="st11" />
			<path id="path16892" d="M202.3 556.8c7.3 1.7 13.2 1.6 17.8 1.8l-15.5-4.8c-33.6-12.6-42.1-32.1-64.8-32.5-5.3.1-9.7 1.4-13.6 3.7v.6c.1 1.5 0 2.9-.4 4.3v.2c15.7 7.7 51.5 20.9 76.5 26.7z" class="st11" />
			<path id="path16894" d="M122.6 555.8c.9-2.4 2.1-6.3 5.6-10.1-4.7-4-5.6-6.1-7.2-10l-.1.1c-1.5.9-3.1 1.4-4.7 1.5h-.2z" class="st11" />
			<path id="path16896" d="M119.6 530.5c2.6-2.6 2.6-6.8 0-9.4a6.64 6.64 0 00-9.4 0 6.64 6.64 0 000 9.4c2.6 2.6 6.8 2.6 9.4 0z" class="st11" />
			<path id="path16898" d="M105.2 549.1c3.4-4 4.9-7.1 6.2-12.5-1.7-.5-3.7-1.5-4.9-3.2L83.2 557c8.9.8 16.5-1.2 22-7.9z" class="st11" />
			<path id="path16900" d="M87.7 86.7c-1.5 6.3-4.4 12.7-7.9 17.8 4.4 2.2 8.1 3.8 12 7.1-8.5 12.8-10.6 21.6-12 37l.6 87.2c5.6-25.4 19.1-58.6 30.8-76 3.4-5.1 4.9-8.3 7-11.7 1.2-2 8.1-13.3 7.9-27.1 4.8-1 9.2-.8 14.8-.4-.7-6-1-6.9.5-16.8 21.1-1.6 27.3-14.3 52.4-27.9 12.2-6.6 20.2-9.6 38.5-16.3-42.6.5-73.8-5.5-100.6 12.5-3-4-5.3-7.9-7.3-12.7-3.7 2.9-10.9 6.5-16.9 8-6.9-6.8-16.1-9.5-27.9-8.4-1.8 9.6.6 21.3 8.1 27.7z" class="st10" />
			<path id="path16902" d="M84.4 102.8c3.3-1.3 18.8-7.1 18.8-7.1l.2-.2c.1 1.4.4 2.7 1 4l.1.3c-6 3.6-9.8 8.7-9.8 9.4 0 .1.1.1 0 .1v-.1c-.5-.7-5.6-5.4-10.3-6.4z" class="st11" />
			<path id="path16904" d="M97.3 176.5c-15.6 34.5-11.9 33-15.4 47.3.4-6.9.9-15.6 1.9-21.9 6.8-37.5 16.5-65.4 28.3-96.1 0 0 3.2.3 4.8 0 2.8 3.3 3.7 7.8 3.7 7.8 5.5 22.6-11.5 36.7-23.3 62.9z" class="st11" />
			<path id="path16906" d="M136.3 116l-14.5-12.1-.1-.1c.4-.3.9-.7 1.3-1.1.7-.7 1.3-1.5 1.8-2.4l.1-.2c7.4 3.6 12.4 3.8 12.4 3.8-1.9 7.9-1 12.1-1 12.1z" class="st11" />
			<path id="path16908" d="M202.3 63.7c7.3-1.7 13.2-1.6 17.8-1.8l-15.5 4.8c-33.6 12.6-42.1 32.1-64.8 32.5-5.3-.1-9.7-1.4-13.6-3.7v-.6c.1-1.5 0-2.9-.4-4.3v-.2c15.7-7.8 51.5-21 76.5-26.7z" class="st11" />
			<path id="path16910" d="M122.6 64.7c.9 2.4 2.1 6.3 5.6 10.1-4.7 4-5.6 6.1-7.2 10l-.1-.1c-1.5-.9-3.1-1.4-4.7-1.5h-.2z" class="st11" />
			<circle r="6.6" id="ellipse16912" cy="94.6" cx="114.9" class="st11" transform="rotate(-44.838 114.897 94.626)" />
			<path id="path16914" d="M105.2 71.4c3.4 4 4.9 7.1 6.2 12.5-1.7.5-3.7 1.5-4.9 3.2L83.2 63.4c8.9-.8 16.5 1.3 22 8z" class="st11" />
			<path id="path16916" d="M400.6 113.8v9.7c-11.9-9.3-24.8-17.1-38.4-23.1V92c13.6 5.6 26.4 13 38.4 21.8z" class="st11" />
			<path id="path16918" d="M297 78.9c6.5 0 12.9.4 19.2 1.1v7.9c-6.3-.8-12.7-1.2-19.2-1.2s-12.8.4-19.1 1.1V80c6.3-.8 12.7-1.1 19.1-1.1z" class="st11" />
			<path id="path16920" d="M232 91.9v8.4c-13.6 5.9-26.4 13.7-38.4 23v-9.7c12-8.7 24.8-16 38.4-21.7z" class="st11" />
			<path id="path16922" d="M193.6 507.1v-9.7c11.9 9.3 24.8 17.1 38.4 23v8.4c-13.6-5.5-26.4-12.9-38.4-21.7z" class="st11" />
			<path id="path16924" d="M297 542c-6.5 0-12.8-.4-19.1-1.1V533c6.3.8 12.7 1.1 19.1 1.1 6.5 0 12.9-.4 19.2-1.2v7.8c-6.3.9-12.7 1.3-19.2 1.3z" class="st11" />
			<path id="path16926" d="M362.2 528.8v-8.4c13.6-6 26.4-13.7 38.4-23.1v9.7c-12 8.9-24.8 16.2-38.4 21.8z" class="st11" />
		</g>
		<g id="g16978">
			<g id="g16952">
				<path id="path16930" d="M742.5 195.4h79.2v102.1h-26.4l-4-23.8c-10 11.6-24.5 28.8-59.1 28.8-45.6 0-87.1-32.7-87.1-99.2 0-51.7 28.8-100.5 92.6-100.3 58.1 0 81 37.7 83.1 63.9h-39.6c0-7.4-13.5-31.1-41.4-31.1-28.2 0-54.4 19.5-54.4 68.1 0 51.7 28.2 65.2 55.1 65.2 8.7 0 37.7-3.4 45.9-41.7h-44.1v-32z" class="st12" />
				<path id="path16932" d="M938.6 256.3c-2.9 10-13.5 15.3-23.7 15.3-29.8 0-31.9-23.7-33-34.3h96.3v-6.6c0-64.1-38.3-77.3-66-77.3-61.5 0-67.3 54.1-67.3 71 0 57.8 30.3 76.8 69.9 76.8 24 0 52-11.1 61.7-44.9zm-55.7-43c2.1-18.5 11.3-29.6 28.8-29.6 11.9 0 26.4 6.9 28.5 29.6z" class="st12" />
				<path id="path16934" d="M1129.7 297.5h-36.9v-85.2c0-10.3-.5-27.7-24-27.7-16.4 0-29 11.1-29 32.5v80.5h-36.9V157.1h35.4v20.6h.5c5-8.4 15.6-24.3 42.2-24.3 27.4 0 48.8 16.1 48.8 47v97.1z" class="st12" />
				<path id="path16936" d="M1246.6 256.3c-2.9 10-13.5 15.3-23.7 15.3-29.8 0-31.9-23.7-33-34.3h96.3v-6.6c0-64.1-38.3-77.3-66-77.3-61.5 0-67.3 54.1-67.3 71 0 57.8 30.4 76.8 69.9 76.8 24 0 52-11.1 61.7-44.9zm-55.7-43c2.1-18.5 11.3-29.6 28.8-29.6 11.9 0 26.4 6.9 28.5 29.6z" class="st12" />
				<path id="path16938" d="M1310.4 157.1h35.4v24.3h.5c7.6-14.3 16.1-28 38.5-28 2.4 0 4.8.3 7.1.5v37.5c-3.2-.5-7.1-.5-10.6-.5-28.8 0-34 17.9-34 33.5v73.1h-36.9z" class="st12" />
				<path id="path16940" d="M1527.1 194c0-34.6-36.2-40.6-55.9-40.6-28.8 0-58.6 6.1-62.8 49.1h35.6c1.1-8.2 4.2-19.5 22.7-19.5 9.5 0 24.3.8 24.3 16.4 0 7.9-7.1 10.3-12.9 11.1l-33.3 5c-23.5 3.4-40.9 17.4-40.9 44.9 0 29 21.6 40.9 42.8 40.9 25.1 0 36.9-11.6 45.4-20.3.8 7.9 1.3 10 3.4 16.6h39.8V292c-4.5-1.6-8.2-5.3-8.2-21.9zm-36.2 53.1c0 17.1-16.6 27.7-33 27.7-7.1 0-17.2-4-17.2-16.9 0-15.3 11.3-18.7 25.1-21.1 15.3-2.4 21.4-4.8 25.1-7.7z" class="st12" />
				<path id="rect16942" class="st12" d="M1561.1 108h36.9v189.5h-36.9z" />
				<path id="path16944" d="M1671.4 140.5h-36.9v-34.3h36.9zm0 16.6v140.4h-36.9V157.1z" class="st12" />
				<path id="path16946" d="M1748.2 157.1h23v26.4h-23v76.3c0 8.2.3 11.3 15.3 11.3 2.4 0 5-.3 7.7-.5v28c-5.8.3-11.6.5-17.4.5h-4.8c-31.9 0-37.7-12.1-37.7-30.4v-85.2h-19v-26.4h19v-38h36.9z" class="st12" />
				<path id="path16948" d="M1908.4 194c0-34.6-36.2-40.6-55.9-40.6-28.8 0-58.6 6.1-62.8 49.1h35.6c1.1-8.2 4.2-19.5 22.7-19.5 9.5 0 24.3.8 24.3 16.4 0 7.9-7.1 10.3-12.9 11.1l-33.3 5c-23.5 3.4-40.9 17.4-40.9 44.9 0 29 21.6 40.9 42.8 40.9 25.1 0 36.9-11.6 45.4-20.3.8 7.9 1.3 10 3.4 16.6h39.8V292c-4.5-1.6-8.2-5.3-8.2-21.9zm-36.2 53.1c0 17.1-16.6 27.7-33 27.7-7.1 0-17.2-4-17.2-16.9 0-15.3 11.3-18.7 25.1-21.1 15.3-2.4 21.4-4.8 25.1-7.7z" class="st12" />
				<path id="path16950" d="M1982.8 157.1h23v26.4h-23v76.3c0 8.2.3 11.3 15.3 11.3 2.4 0 5-.3 7.6-.5v28c-5.8.3-11.6.5-17.4.5h-4.8c-31.9 0-37.7-12.1-37.7-30.4v-85.2h-19v-26.4h19v-38h36.9v38z" class="st12" />
			</g>
			<path id="path16954" d="M779 371.9h-37v67.3h-.5c-5.8-9-16.9-21.9-40.6-21.9-30.9 0-58.3 23.7-58.3 72.3 0 38.5 17.4 75.5 59.1 75.5 15.3 0 31.7-5.5 40.6-21.4h.5v17.7H779zm-98.5 120.4c0-22.2 7.9-43 31.4-43 25.3 0 31.7 22.7 31.7 45.1 0 20.8-9.2 40.4-32.7 40.4-23.8-.1-30.4-25.9-30.4-42.5z" class="st12" />
			<path id="path16956" d="M894.5 520.2c-2.9 10-13.5 15.3-23.8 15.3-29.8 0-31.9-23.7-33-34.3H934v-6.6c0-64.1-38.3-77.3-66-77.3-61.5 0-67.3 54.1-67.3 71 0 57.8 30.3 76.8 69.9 76.8 24 0 52-11.1 61.7-44.9zm-55.6-43c2.1-18.5 11.3-29.6 28.8-29.6 11.9 0 26.4 6.9 28.5 29.6z" class="st12" />
			<g id="g16976">
				<path id="path16958" d="M1155.8 433.9c-3.2-11.3-9.2-32.7-42-32.7-19 0-47 12.7-47 66.2 0 34 13.5 64.7 47 64.7 21.9 0 37.2-12.4 42-35.6h39.6c-7.9 41.2-34.8 69.9-82.3 69.9-50.4 0-86.6-34-86.6-99.5 0-66.2 38.3-100 87.1-100 56.7 0 79.7 39.1 81.8 67z" class="st12" />
				<path id="path16960" d="M1336.3 457.9c0-34.6-36.2-40.6-55.9-40.6-28.8 0-58.6 6.1-62.8 49.1h35.6c1.1-8.2 4.2-19.5 22.7-19.5 9.5 0 24.3.8 24.3 16.4 0 7.9-7.1 10.3-12.9 11.1l-33.2 5c-23.5 3.4-40.9 17.4-40.9 44.9 0 29 21.6 40.9 42.7 40.9 25.1 0 36.9-11.6 45.4-20.3.8 7.9 1.3 10 3.4 16.6h39.8V556c-4.5-1.6-8.2-5.3-8.2-21.9zm-36.2 53.1c0 17.1-16.6 27.7-33 27.7-7.1 0-17.2-4-17.2-16.9 0-15.3 11.3-18.7 25.1-21.1 15.3-2.4 21.4-4.8 25.1-7.7z" class="st12" />
				<path id="path16962" d="M1410.7 421h23v26.4h-23v76.3c0 8.2.3 11.3 15.3 11.3 2.4 0 5-.3 7.6-.5v28c-5.8.3-11.6.5-17.4.5h-4.7c-31.9 0-37.7-12.1-37.7-30.4v-85.2h-19V421h19v-38h36.9z" class="st12" />
				<path id="path16964" d="M1570.9 457.9c0-34.6-36.2-40.6-55.9-40.6-28.8 0-58.6 6.1-62.8 49.1h35.6c1.1-8.2 4.2-19.5 22.7-19.5 9.5 0 24.3.8 24.3 16.4 0 7.9-7.1 10.3-12.9 11.1l-33.3 5c-23.5 3.4-40.9 17.4-40.9 44.9 0 29 21.6 40.9 42.8 40.9 25.1 0 36.9-11.6 45.4-20.3.8 7.9 1.3 10 3.4 16.6h39.8V556c-4.5-1.6-8.2-5.3-8.2-21.9zm-36.2 53.1c0 17.1-16.6 27.7-33 27.7-7.1 0-17.2-4-17.2-16.9 0-15.3 11.3-18.7 25.1-21.1 15.3-2.4 21.4-4.8 25.1-7.7z" class="st12" />
				<path id="rect16966" class="st12" d="M1604.9 371.9h36.9v189.5h-36.9z" />
				<path id="path16968" d="M1803.9 561.4h-35.4v-19.8h-.5c-8.4 15-23.2 23.5-42.7 23.5-27.7 0-47.8-15.8-47.8-51.7V421h36.9v87.1c0 21.6 12.7 25.9 24 25.9 12.1 0 28.5-6.9 28.5-31.9v-81h36.9v140.3z" class="st12" />
				<path id="path16970" d="M1965.4 561.4h-36.9v-85.2c0-10.3-.5-27.7-24-27.7-16.4 0-29 11.1-29 32.5v80.5h-36.9V421h35.4v20.6h.5c5-8.4 15.6-24.3 42.2-24.3 27.4 0 48.8 16.1 48.8 47v97.1z" class="st12" />
				<path id="path16972" d="M2071.3 559c-17.4 52-22.2 58.8-54.4 58.8-5 0-11.3-.3-16.6-.5v-29.6c1.6.3 4 .5 7.1.5 13.5 0 20.8-1.8 24.3-21.1L1980 421h41.2l30.1 103.4h.5l28.8-103.4h39.1z" class="st12" />
				<path id="path16974" d="M2247.1 457.9c0-34.6-36.1-40.6-55.9-40.6-28.8 0-58.6 6.1-62.8 49.1h35.6c1.1-8.2 4.2-19.5 22.7-19.5 9.5 0 24.3.8 24.3 16.4 0 7.9-7.1 10.3-12.9 11.1l-33.2 5c-23.5 3.4-40.9 17.4-40.9 44.9 0 29 21.6 40.9 42.8 40.9 25.1 0 36.9-11.6 45.4-20.3.8 7.9 1.3 10 3.4 16.6h39.8V556c-4.5-1.6-8.2-5.3-8.2-21.9v-76.2zm-36.2 53.1c0 17.1-16.6 27.7-33 27.7-7.1 0-17.2-4-17.2-16.9 0-15.3 11.3-18.7 25.1-21.1 15.3-2.4 21.4-4.8 25.1-7.7z" class="st12" />
			</g>
		</g>
	</g>
</svg>
