<?xml version="1.0" encoding="utf-8"?>
<!DOCTYPE svg PUBLIC "-//W3C//DTD SVG 1.0//EN" "http://www.w3.org/TR/2001/REC-SVG-20010904/DTD/svg10.dtd">
<svg version="1.0" xmlns="http://www.w3.org/2000/svg" width="2501px" height="1375px" viewBox="0 0 2501 1375" preserveAspectRatio="xMidYMid meet">
	<g fill="#0153ab">
		<path d="M1875 1122 c-2.4 -0.5 -6.8 -2.1 -9.6 -3.5 -23.8 -11.7 -27.2 -54.8 -5.9 -74.3 7.3 -6.7 14.5 -9.5 25 -9.6 23.6 -0.2 38.1 16.6 37.8 43.9 -0.1 20.9 -8.9 35.5 -24.8 41.4 -6.5 2.4 -16.4 3.3 -22.5 2.1z m17 -13.9 c1.4 -0.9 3.8 -4.3 5.4 -7.5 2.7 -5.2 3 -7.1 3.4 -17.4 1 -24.6 -4.5 -36.4 -16.8 -36.4 -6.7 0 -9.6 2.1 -13.5 9.7 -2.6 5.2 -2.9 7 -3.3 17.7 -0.7 17.9 2.2 29.1 8.5 33.6 4.8 3.4 11.5 3.5 16.3 0.3z" />
		<path d="M2047.8 1122 c-21.4 -3.9 -34.8 -23.3 -32.3 -47 1.5 -13.7 6.2 -23.8 14.5 -31.3 7 -6.3 14.4 -9 24.5 -9.1 7.2 -0.1 8.8 0.3 14.8 3.2 11.3 5.6 16.2 14.3 17.4 31 0.9 12.7 2.1 12.2 -26.5 12.2 l-23.5 0 0.7 4.2 c1.7 10.5 7.8 18.7 15.9 21.4 6.6 2.2 16.9 1.4 24.1 -1.9 l5.4 -2.5 0.7 6.5 c0.6 5.6 0.4 6.6 -1.2 7.8 -5.8 4.3 -24.5 7.3 -34.5 5.5z m12.1 -49.6 l6.1 -0.7 0 -6 c0 -12.4 -4.4 -19.1 -12.4 -18.9 -3 0 -5.6 0.8 -7.7 2.3 -4 2.8 -7.9 11.2 -8.6 18.4 l-0.6 5.5 8.5 0 c4.7 0 11.3 -0.3 14.7 -0.6z" />
		<path d="M2177.1 1121.5 c-5.1 -1.6 -9.5 -5.4 -12.4 -11 -2 -3.8 -2.2 -5.9 -2.8 -38.5 -0.3 -19 -0.5 -34.6 -0.3 -34.8 0.1 -0.2 4.4 -0.9 9.6 -1.6 6.2 -0.9 9.7 -1 10.6 -0.4 0.9 0.8 1.2 8.4 1.2 31.7 0 27.1 0.2 31 1.8 34.1 0.9 1.9 2.8 4 4.2 4.7 4.9 2.5 13.4 1.2 19.3 -2.9 l2.7 -1.9 0 -32.4 0 -32.3 8.8 -0.7 c4.8 -0.4 9.5 -0.9 10.4 -1.1 1.5 -0.5 1.7 2.6 2.1 39.8 0.3 22.2 0.8 41.7 1.2 43.5 l0.7 3.1 -6.8 0.7 c-3.8 0.4 -7.6 0.9 -8.6 1.1 -1.2 0.4 -2.1 -1 -3.8 -6.1 l-2.2 -6.6 -3.1 2.5 c-5.6 4.5 -11.9 7.9 -17.1 9.3 -6.2 1.6 -9.8 1.6 -15.5 -0.2z" />
		<path d="M2261.5 1121.6 c-3.8 -0.8 -8.9 -2.1 -11.1 -3 l-4.2 -1.7 0.5 -6.7 c0.3 -3.7 0.9 -7 1.2 -7.5 0.4 -0.4 2.8 0.1 5.2 1.2 14.5 6.5 29.4 6.5 32.8 0.3 1.7 -3.2 1.3 -7.7 -1 -10.5 -1.1 -1.5 -7.5 -5.3 -14.6 -8.8 -8.3 -4 -14 -7.5 -16.7 -10.3 -12.2 -12.1 -6.7 -30.9 10.9 -37.6 8 -3.1 24 -3.2 33 -0.3 l6 1.9 -0.1 7.2 c0 3.9 -0.3 7.4 -0.5 7.7 -0.3 0.3 -3.4 -0.6 -6.8 -2 -11.5 -4.7 -24 -4.3 -27.6 0.8 -2.1 3 -1.9 8 0.6 11.1 1.2 1.5 7.7 5.5 15 9.1 18.2 9.2 22.9 14.5 22.9 25.8 0 10.1 -7.2 18.9 -18.3 22.2 -7.4 2.2 -19 2.7 -27.2 1.1z" />
		<path d="M2327.5 1121.6 c-3.8 -0.8 -8.9 -2.1 -11.1 -3 l-4.2 -1.7 0.5 -6.7 c0.3 -3.7 0.9 -7 1.2 -7.5 0.4 -0.4 2.8 0.1 5.2 1.2 14.5 6.5 29.4 6.5 32.8 0.3 1.7 -3.2 1.3 -7.7 -1 -10.5 -1.1 -1.5 -7.5 -5.3 -14.6 -8.8 -8.3 -4 -14 -7.5 -16.7 -10.3 -12.2 -12.1 -6.7 -30.9 10.9 -37.6 8 -3.1 24 -3.2 33 -0.3 l6 1.9 -0.1 7.2 c0 3.9 -0.3 7.4 -0.5 7.7 -0.3 0.3 -3.4 -0.6 -6.8 -2 -11.5 -4.7 -24 -4.3 -27.6 0.8 -2.1 3 -1.9 8 0.6 11.1 1.2 1.5 7.7 5.5 15 9.1 18.2 9.2 22.9 14.5 22.9 25.8 0 10.1 -7.2 18.9 -18.3 22.2 -7.4 2.2 -19 2.7 -27.2 1.1z" />
		<path d="M2394.5 1121.6 c-9.2 -2.6 -15.5 -12.5 -13.9 -22 2.4 -14.5 14.5 -22 40.7 -25.1 l4.7 -0.6 0 -7.3 c0 -5.9 -0.4 -7.9 -2.3 -10.7 -3.5 -5.2 -6 -6 -16.2 -5.7 -7.6 0.3 -10.1 0.9 -15.7 3.5 l-6.7 3.1 -0.6 -5.2 c-1.2 -9.6 -0.7 -10.9 5.3 -12.9 21 -6.9 40.5 -5.4 49.8 3.8 6.8 6.9 7.5 10.4 7.3 40.5 -0.1 23.1 0.4 30.5 2.6 36.2 0.5 1.3 -0.6 1.7 -6.2 2.2 -3.7 0.4 -7.6 1 -8.6 1.2 -1.7 0.5 -3.5 -2.4 -6.1 -9.9 -0.5 -1.7 -1.1 -1.4 -5.2 2.1 -7.5 6.7 -19.3 9.4 -28.9 6.8z m23.2 -12.1 c1.8 -0.3 4.4 -1.5 5.8 -2.6 2.4 -2 2.5 -2.4 2.5 -14 0 -6.5 -0.2 -11.9 -0.5 -11.9 -0.2 0 -2.8 0.5 -5.7 1.1 -7.2 1.5 -14.4 5.6 -16.8 9.4 -2.7 4.4 -2.7 11.4 0.1 14.9 2 2.6 7.1 4.7 9.9 4.1 0.8 -0.2 2.9 -0.6 4.7 -1z" />
		<path d="M1704 1119.8 c-0.1 -0.7 2.7 -27.3 6.2 -59 l6.2 -57.8 11.3 -0.2 c6.2 -0.1 12.5 -0.2 14 -0.2 2.6 -0.1 2.7 0.2 10.5 26.4 7.5 25.4 13.3 49 15.9 65 1.5 9.2 1.7 8.7 5.9 -13.5 3 -15.5 5.5 -25.3 16.6 -63.3 4.5 -15.2 2.6 -13.8 19.6 -14.5 6.3 -0.3 10.3 0 11.3 0.7 1.1 0.8 2.8 13.7 7.5 56.6 3.3 30.5 6.2 56.7 6.5 58.3 l0.5 2.7 -10.5 0 c-5.8 0 -10.5 -0.1 -10.5 -0.2 -1.5 -10.6 -7.3 -66.2 -8.2 -78.5 -0.6 -9.4 -1.5 -17 -1.9 -16.8 -0.3 0.3 -0.9 2.4 -1.3 4.7 -1.1 7.1 -7.1 30.7 -14.5 57.3 -3.8 13.8 -7.4 26.9 -8 29.3 l-1.2 4.2 -11.9 0 c-6.6 0 -12 -0.2 -12 -0.4 0 -0.2 -3.4 -12.7 -7.6 -27.8 -8.4 -30.6 -14.9 -56.1 -15.9 -63.2 -0.4 -2.6 -1 -4.5 -1.3 -4.2 -0.2 0.3 -1.1 7.9 -1.8 16.8 -1.5 17.6 -7 70.2 -7.9 75.6 l-0.6 3.2 -8.4 0 c-6.1 0 -8.5 -0.4 -8.5 -1.2z" />
		<path d="M1936.9 1063.8 c0 -31.5 -0.4 -59.9 -0.8 -63 -0.4 -3.2 -0.7 -5.8 -0.7 -5.8 0.1 -0.1 4.6 -0.7 10.1 -1.4 6.7 -0.9 10.4 -1 11.3 -0.4 0.9 0.8 1.2 14.9 1.2 64.4 l0 63.4 -10.5 0 -10.5 0 -0.1 -57.2z" />
		<path d="M1977.9 1063.8 c0 -31.5 -0.4 -59.9 -0.8 -63 -0.4 -3.2 -0.7 -5.8 -0.7 -5.8 0.1 -0.1 4.6 -0.7 10.1 -1.4 6.7 -0.9 10.4 -1 11.3 -0.4 0.9 0.8 1.2 14.9 1.2 64.4 l0 63.4 -10.5 0 -10.5 0 -0.1 -57.2z" />
		<path d="M2102 1088.8 c0 -23.5 -0.4 -34.8 -1.5 -41.3 -0.8 -4.9 -1.3 -9 -1.1 -9.2 0.1 -0.2 4.3 -1.1 9.3 -2.1 l9.1 -1.9 1.1 2.3 c0.5 1.2 1.6 5 2.2 8.3 0.7 3.4 1.6 6.1 2 6.1 0.4 0 1.7 -1.6 2.9 -3.5 3.2 -5.1 10.7 -11.4 15.4 -12.6 3 -0.8 5 -0.8 7.9 0.1 l3.9 1.2 -0.6 8.1 c-1 12 -0.3 11.2 -10.3 11.2 -7.5 0 -9.6 0.4 -13.8 2.6 l-5 2.5 -0.3 30.2 -0.2 30.2 -10.5 0 -10.5 0 0 -32.2z" />
		<path fill="#fcc625" d="M571 958.9 c-4 -1.6 -7.9 -6 -8.6 -9.5 -0.5 -2.7 13.7 -46.1 73.2 -224.8 l73.9 -221.5 -1.5 -4.3 c-1.4 -4.1 -7.5 -8.8 -143 -110.4 -152.1 -114.1 -146 -109.2 -144.5 -117.1 1 -5.3 6.3 -10.3 11 -10.3 2 0 81.6 15.5 176.8 34.5 95.2 19 174.6 34.5 176.5 34.5 4.4 0 8.7 -2.6 10.7 -6.4 0.8 -1.7 16.2 -63.4 34 -137.1 17.9 -73.7 33.2 -135.5 34 -137.3 1.7 -3.8 6.8 -7.2 10.8 -7.2 4.4 0 9.3 2.8 11.1 6.3 0.9 1.8 17.4 64.4 36.7 139.2 19.2 74.8 35.5 137.1 36.2 138.4 0.6 1.3 2.6 3.3 4.2 4.3 2.9 1.7 9 1.8 143.5 1.8 80.5 0 142.2 0.4 144.4 1 8.3 1.9 12.8 10.8 9.2 17.9 -1.3 2.5 -23.8 17.9 -104.9 72 -56.8 37.9 -104.3 70 -105.6 71.4 -1.4 1.6 -2.5 4.3 -2.8 7 -0.5 4.3 2.4 10.4 72.6 150.3 45 89.8 73.1 147 73.1 148.7 0 6.5 -6.2 12.7 -12.7 12.7 -2.3 0 -46.4 -21.6 -150.3 -73.5 -80.9 -40.4 -147.9 -73.5 -149.1 -73.5 -1.1 0 -3.6 0.7 -5.7 1.5 -2.6 1.1 -45.4 43.3 -148.2 146 -82.3 82.2 -145.7 144.9 -147.3 145.5 -3.4 1.2 -4.4 1.2 -7.7 -0.1z m283.7 -328.7 c13.5 -6.6 28.3 -7.8 41.4 -3.3 3 1 52.8 25.5 110.6 54.5 57.9 28.9 105.5 52.6 105.8 52.6 0.3 0 -23.1 -47.1 -51.9 -104.7 -28.7 -57.7 -53.2 -107.3 -54.2 -110.3 -2.8 -8.2 -2.6 -25.2 0.5 -34 2.7 -7.7 9.7 -18.5 14.8 -23 2 -1.8 31.7 -21.9 66.1 -44.8 l62.5 -41.7 -95.4 -0.5 -95.4 -0.5 -6.5 -2.3 c-14.3 -5.2 -26.6 -15.8 -32.7 -28.2 -2.2 -4.7 -8.8 -28.5 -23.3 -85 -11.1 -43.2 -20.6 -79.2 -21 -80 -1 -1.8 0.7 -8.3 -21 81 -20.4 84.5 -20.5 84.6 -31.9 95.9 -7.3 7.3 -15.6 12.2 -24.7 14.6 -12.7 3.4 -13.9 3.2 -131.8 -20.4 -60.5 -12.2 -110.1 -21.9 -110.4 -21.7 -0.2 0.3 39.1 30.1 87.5 66.4 56.7 42.5 89.7 67.9 93.1 71.6 6.1 6.8 11.6 17.5 13.3 26.4 2.7 14.2 4.6 7.6 -53.6 182.2 -29.4 88.3 -53.5 160.9 -53.5 161.5 0 0.5 45.8 -44.7 101.8 -100.6 100.8 -100.7 101.8 -101.7 109.9 -105.7z" />
		<path d="M707.6 915.8 c-2 -2.9 -2 -3.4 0.4 -5.8 2 -2 3.3 -2 875 -2 l873 0 1.6 2.5 c1.5 2.3 1.5 2.7 0 5 l-1.6 2.5 -873.5 0 -873.4 0 -1.5 -2.2z" />
		<path d="M44.8 915.9 c-2.5 -1.4 -2.4 -6.5 0.1 -7.9 1.4 -0.7 75.2 -1 231.4 -1 221 0 229.5 0.1 231 1.8 2.2 2.4 2.1 4.5 -0.1 6.5 -1.7 1.6 -19.2 1.7 -231.3 1.7 -154 -0.1 -230 -0.4 -231.1 -1.1z" />
		<path d="M1390.5 756.4 c-10.1 -1.1 -29.5 -4.8 -38.8 -7.4 -61.1 -17.2 -98.9 -60.3 -101.4 -115.7 l-0.6 -12.3 41.2 0 41.1 0 0 5.3 c0.1 13.2 6.6 30.3 15.5 40.4 9.2 10.4 25.6 19.1 43 22.8 10.7 2.3 33.6 3.1 45 1.6 28.4 -3.8 46 -13.2 53.7 -28.9 3.1 -6.4 3.3 -7.2 3.3 -18.2 0 -10.2 -0.3 -12 -2.4 -16 -3.8 -7.2 -7 -10.9 -13.5 -15.5 -14.2 -10 -26.3 -14.3 -74.8 -26.5 -19.9 -5.1 -43 -11.4 -51.3 -14.1 -52.1 -17.3 -78.9 -42.3 -86 -80.4 -2.4 -12.5 -1.6 -36.6 1.5 -48 14.6 -53.8 70.4 -88.5 142.4 -88.5 34.9 0 64.1 6.1 90.1 19 39.1 19.2 60.7 51.3 63.4 94.3 l0.6 9.7 -41.2 0 -41.3 0 0 -3.7 c0 -5.8 -2.8 -16.1 -6.1 -22.7 -6 -12.3 -15.4 -20.4 -29.7 -25.6 -11.7 -4.2 -20.8 -5.5 -39.2 -5.5 -14.1 0.1 -17.7 0.4 -24.5 2.3 -15.9 4.6 -27.1 12.9 -32.3 24 -2.4 5.1 -2.7 6.8 -2.7 17.2 0 13.2 1.3 16.9 8.4 23.3 10.2 9.2 25.5 14.3 98.6 33.1 18.2 4.6 37 9.9 41.9 11.6 35.2 12.5 61.1 33.5 72.1 58.5 12.6 28.4 11.7 65 -2.4 94 -11.4 23.7 -29.1 40.7 -55.6 53.6 -17.4 8.4 -32.1 12.9 -54 16.5 -9.7 1.5 -54.3 2.8 -64 1.8z" />
		<path d="M351 753.5 c-0.8 -0.2 -4.9 -0.9 -9 -1.5 -31 -5 -55.6 -21.9 -66.7 -45.8 -6.2 -13.3 -7.6 -20.6 -7.7 -39.7 -0.1 -19.8 1.1 -25.9 7.9 -40 11.4 -23.8 34.3 -38 73.7 -45.9 6.8 -1.4 25.4 -4.1 41.3 -6.1 16 -2 33.7 -4.7 39.5 -5.9 23.1 -5.2 32.5 -13.1 33.8 -28.2 1 -13.4 -3.9 -26.5 -12.6 -33.1 -14.2 -10.8 -53.7 -11.9 -72.8 -2 -9.9 5.1 -18.1 17.4 -20.5 30.6 l-1.2 7.1 -40.4 0 c-24.1 0 -40.3 -0.4 -40.3 -0.9 0 -4.2 2.6 -18 4.7 -24.6 12 -38.3 45 -61.8 98.5 -70.2 13.9 -2.2 58.2 -2.5 72.3 -0.5 52.7 7.4 80.4 25.5 90.6 59.2 l2.3 7.5 0.6 99.5 c0.7 95.5 0.8 99.9 2.8 110.6 1.2 6.1 3 13.4 4.2 16.3 1.1 2.8 2 5.4 2 5.6 0 0.3 -18.2 0.5 -40.5 0.5 l-40.4 0 -1.6 -5.2 c-0.9 -2.9 -2.1 -8.7 -2.6 -12.8 -0.6 -4.1 -1.3 -8.1 -1.5 -8.9 -0.3 -0.8 -2.5 0.6 -6.3 4.2 -15.9 14.6 -40.7 25.3 -68.1 29.2 -9 1.2 -37.2 1.9 -42 1z m59.7 -53.5 c4.3 -0.6 10.7 -2 14.3 -3.2 20.9 -6.6 34.1 -23.2 37.9 -47.5 1.1 -7.4 1.6 -46.3 0.5 -46.3 -0.3 0 -1.8 0.9 -3.3 1.9 -7 5 -17.7 7.7 -47.4 12.1 -38.7 5.7 -53.3 12.4 -60.9 27.8 -3.2 6.4 -3.3 7.2 -3.3 18.2 0 9.9 0.3 12.2 2.4 16.7 2.6 5.8 8.7 12.1 15 15.2 10 5.1 28.6 7.2 44.8 5.1z" />
		<path d="M1670.7 752.5 c-41.1 -7.2 -67.4 -30.7 -74.3 -66.4 -2 -10.3 -1.9 -30.5 0.1 -40.5 6.2 -30 25.4 -49.3 59.3 -60 13.1 -4.1 30.3 -7.2 61.7 -11.1 16 -2 33.1 -4.5 38 -5.5 17.6 -3.6 27.8 -9 33 -17.4 2.8 -4.6 3 -5.6 2.9 -14.5 0 -11.3 -1.3 -16.2 -5.7 -22.8 -7.8 -11.7 -26.2 -17.4 -51.2 -15.9 -18 1 -29 5.3 -37.6 14.3 -6.6 6.9 -11.9 19.2 -11.9 27.6 l0 2.7 -40.6 0 -40.7 0 0.6 -6.4 c1.4 -14.7 7.3 -31.3 15.6 -43.5 17.4 -25.6 51.1 -42.2 95.3 -47 22.7 -2.5 61.6 -0.9 82.5 3.5 35.5 7.3 60.2 24.2 69.3 47.5 5.7 14.3 5.4 8.4 6 115.4 0.6 87 0.8 100.1 2.3 108.5 1.5 8.2 3.9 17.1 6.2 23.3 0.7 1.6 -1.5 1.7 -40.1 1.5 l-40.9 -0.3 -2.2 -9 c-1.2 -4.9 -2.2 -10.4 -2.2 -12.2 -0.2 -6.6 -0.9 -6.7 -6.5 -1.5 -14.1 13.3 -35.1 23.3 -59.5 28.4 -12.6 2.6 -47.7 3.4 -59.4 1.3z m77.3 -54.1 c21.4 -5.4 35.2 -19.3 41.2 -41.1 1.8 -6.6 2.2 -11.5 2.6 -31.2 0.2 -12.8 0 -23.2 -0.4 -23 -0.5 0.2 -3.7 1.9 -7.2 3.7 -7.7 4 -17.6 6.4 -40.7 9.7 -47.8 6.8 -64.1 16.5 -67.4 39.8 -1 6.8 -0.1 16.9 1.8 22 4.3 11.3 16.1 19.1 32.3 21.6 8.7 1.4 30 0.5 37.8 -1.5z" />
		<path d="M2293.4 751.9 c-53.6 -3.9 -96.8 -31.6 -119.2 -76.4 -18.5 -37.1 -22.1 -88.4 -9.1 -129.1 16.3 -51.2 54.9 -86.7 107.4 -99 11.3 -2.7 13.3 -2.8 35 -2.9 25.4 0 34.2 1.3 52.4 7.7 42.9 15.1 73.5 50.5 86.2 99.5 4.2 16.3 5.9 31.7 5.9 52.4 l0 17.9 -107.1 0 -107.2 0 0.7 7.3 c3.4 34 17.1 52.6 44.5 59.9 10.9 2.9 33 3.6 43.7 1.4 15.8 -3.2 29.2 -10.4 39.2 -21 3.2 -3.5 6.8 -8.4 7.8 -11 l1.9 -4.6 35.3 0 c19.3 0 35.2 0.2 35.2 0.5 0 0.3 -1.5 4.5 -3.4 9.3 -12.9 33.4 -34 58.4 -61.1 72.4 -18.4 9.4 -36.5 14.1 -60.7 15.8 -7.9 0.5 -14.7 0.9 -15.3 0.8 -0.5 0 -6 -0.4 -12.1 -0.9z m76.9 -188.1 c-3.4 -18.4 -10.9 -34.6 -20.2 -43.9 -12 -11.9 -26.3 -16.6 -48.6 -15.6 -19.5 0.8 -33.9 6.7 -45.4 18.6 -9 9.4 -15.9 24.5 -17.6 38.4 l-0.7 5.7 66.6 0 66.6 0 -0.7 -3.2z" />
		<path d="M48 560.5 l0 -186.5 41 0 41 0 0 152 0 152 56.5 0 56.5 0 0 34.5 0 34.5 -97.5 0 -97.5 0 0 -186.5z" />
		<path d="M1915 560.5 l0 -186.5 41 0 41 0 0 186.5 0 186.5 -41 0 -41 0 0 -186.5z" />
		<path d="M2040 560.5 l0 -186.5 40.5 0 40.5 0 0 186.5 0 186.5 -40.5 0 -40.5 0 0 -186.5z" />
	</g>
</svg>
