<?xml version="1.0" encoding="utf-8"?>
<!-- Generator: Adobe Illustrator 19.2.1, SVG Export Plug-In . SVG Version: 6.00 Build 0) -->
<svg version="1.1" id="layer" xmlns="http://www.w3.org/2000/svg" xmlns:xlink="http://www.w3.org/1999/xlink" x="0px" y="0px" viewBox="0 0 652 652" style="enable-background:new 0 0 652 652;" xml:space="preserve">
	<style type="text/css">
		.st0{fill:#369445 !important;}
		.st1{fill:#0A864C !important;}
		.st2{fill:#FFFFFF !important;}
		.st3{fill:none;stroke:#FFFFFF;stroke-width:0.1889;stroke-miterlimit:3.864 !important;}
		.st4{fill:#E5B327 !important;}
		.st5{fill:#810E4F !important;}
		.st6{fill:#BBCD45 !important;}
		.st7{fill:#C6493D !important;}
	</style>
	<g transform="scale(1)">
		<path class="st0" d="M270.2,263.1c0-27.6,22.3-49.9,49.9-49.9c27.6,0,49.9,22.3,49.9,49.9c0,27.6-22.3,49.9-49.9,49.9
		C292.6,313,270.2,290.7,270.2,263.1" />
		<path class="st1" d="M270.2,263.1c0-27.6,22.3-49.9,49.9-49.9c27.6,0,49.9,22.3,49.9,49.9c0,27.6-22.3,49.9-49.9,49.9
		C292.6,313,270.2,290.7,270.2,263.1" />
		<path class="st2" d="M273.7,263.1c0-25.6,20.8-46.4,46.4-46.4c25.6,0,46.4,20.8,46.4,46.4c0,25.6-20.8,46.4-46.4,46.4
		C294.5,309.5,273.7,288.7,273.7,263.1" />
		<path class="st3" d="M273.7,263.1c0-25.6,20.8-46.4,46.4-46.4c25.6,0,46.4,20.8,46.4,46.4c0,25.6-20.8,46.4-46.4,46.4
		C294.5,309.5,273.7,288.7,273.7,263.1z" />
		<path class="st4" d="M321.1,292.5h-21.4l-4.7,0.1c-2-1-3.2-2.5-3.4-4.4c0,0,0-1.1,0-2.8c0-1.9,0.1-4.7,0.1-7.8c0-2.6-0.1-5.4-0.1-8
		c0-2.5-0.2-4.9,0-6.8c0.7-1.7,2-2.6,3.6-3.1h22.6l0.5,0l0-28.6c0.4-1.2,1.6-1.5,2.7-1.9c1.1,0.4,2.3,0.7,2.7,1.9l0,28.6l0.5,0h22.6
		c1.7,0.5,3,1.4,3.6,3.1c0.2,2,0,4.3,0,6.8c0,2.6,0,5.4,0,8c0,3.1,0,5.9,0.1,7.8c0,1.7,0,2.8,0,2.8c-0.1,1.8-1.4,3.4-3.4,4.4
		l-4.7-0.1H321.1L321.1,292.5z" />
		<path class="st5" d="M354.8,239.8c-1.5,3.2-4.2,4.5-4.9,7.7c-1.5,3.4-0.4,8.1-3.3,10.7c-1.2-0.1-5.3-0.1-5.7-0.1
		c-0.4,0-10.1,0.1-10.1,0.1c3.6-4,6-10.3,11.9-11.6c3.1-1.1,6.2-4.6,7.3-7.7C351.1,236,353.4,239.1,354.8,239.8" />
		<path class="st6" d="M338.9,246v1.2c-1.8,0.4-3.3,2.3-4.5,3.5l-5.4,7.8l-3.3,0c0.4-5-1.3-13.2,2.9-14.9c2.5-0.9,4,1.8,6.1-0.1
		C336.7,243.3,338,244.4,338.9,246" />
		<path class="st6" d="M356.9,252.4c-1.2,2.8,2.3,3.3,1,5.9l-3.3,3.8c-3,0.6-2.8-3-5.4-3.5c0.6-2,1.8-4.4,2.1-7
		C352.7,251.4,355.8,250.6,356.9,252.4" />
		<path class="st6" d="M296.5,241.6c2.2-0.8,3.6,2.5,5.4,0.4c2,1.5,0.4,4.8,2,6.6c-0.2,1.4-2.2,0.9-3.1,1.8c-1.6,3.9-5.6,0.7-8.5,0.7
		c-0.9-0.6-2.6-0.2-2.6-1.7c-0.2-0.9,0.9-1.5,0.5-2.5c-0.9-0.9-1.7-2.3-1.4-3.6c0.2-0.7,0.8-1.5,1.5-1.6
		C292.9,240.9,294.4,243.5,296.5,241.6" />
		<path class="st1" d="M288.9,247.3c-0.6,0.9-0.4,2.3-0.2,3.3c2.6,1.8,6.2,2.2,9.2,3l-0.6,1.8c-4.6-1.1-9.7-0.6-13.6,1.5
		c-1.5,0.4-2.8-0.4-3.3-1.7c0.1-2.2-3.6-1.7-2.5-4.4c0.9-2.5,4.6-1.3,4.7-4.1C284.4,245.3,287.4,246.1,288.9,247.3" />
		<path class="st6" d="M296.8,256.5l0.3,1.6c-4.2-0.1-8.4,1.1-11.5,4c-1,0.1-2.3-0.6-1.7-1.9C286.2,255.9,292.1,255.5,296.8,256.5" />
		<path class="st7" d="M315.3,249.9c-1.7-0.4-2.7,0.5-4.4,1.2c-2-1.7-1-0.4-1.6-1c-0.8-0.5-2.8-0.7-4-0.9c2.6-1.8,5.2-3.5,10-2.1
		C315.3,247,315.3,249.3,315.3,249.9" />
		<path class="st7" d="M309.8,252.2c-1.2,1.2-1.9,2-2.5,3.3l-0.5,2.8H299c-0.8-2.3,0.4-4.5,1.9-6.3
		C303.5,250.2,307.4,250.7,309.8,252.2" />
		<path class="st7" d="M315.6,258.3H309c-0.3-1.5,0.7-3,1.4-4.4c1.4-1.1,3.4-2.1,5.2-1.9V258.3z" />		
		<path class="st1" d="M59,359.5l-9.8-21.8c-1.9-4.4-6.2-7.3-10.8-7.3c-5.6,0-9.5,3.8-10.6,10.2l-7.5,42c-0.1,0.9-0.2,1.8-0.2,2.7
		c0,6.9,4.5,11.8,10.9,11.8c5.6,0,9.8-3.8,10.8-10.1l1.8-10.4l4.3,11.7c2.3,6.1,5.7,8.9,11,8.9c5.1,0,9-3.1,11.1-9l4.2-11.6
		l2.5,12.3c0.9,4.9,5.2,8.3,10.7,8.3c5.9,0,10.6-4.6,10.6-10.5c0-1-0.1-2.3-0.4-3.6l-7.5-42.3c-0.6-3.6-1.5-5.4-3.4-7.2
		c-1.9-1.8-4.8-3-7.5-3c-4,0-7.9,2.4-9.6,5.8L59,359.5z" />
		<path class="st1" d="M124.1,376.3v-4.9h7.8c3.4,0,5-0.4,6.7-1.7c1.8-1.5,2.9-3.7,2.9-6.2c0-4.6-3.5-7.8-8.8-7.8h-8.6v-4.5H135
		c4,0,6.3-0.7,8.3-2.4c2.3-1.9,3.5-4.8,3.5-8c0-4.5-3-8.3-7.5-9.5c-1.5-0.4-2.1-0.5-8.3-0.5h-13c-6.4,0-6.9,0.1-9.3,1.1
		c-2.3,1-4.3,3-5.2,5.4c-0.9,2.1-1,2.8-1,8.3v35.7c0,4.5,0.1,5.1,0.4,6.5c0.7,3.8,2.9,6.5,6.2,7.9c1.9,0.7,3.3,0.9,8.3,0.9h16.8
		c4.9,0,6.8-0.5,9-2.3c2.2-1.9,3.5-4.8,3.5-7.9c0-3-1.3-5.7-3.5-7.7c-2.3-1.9-4.3-2.5-9.1-2.5H124.1z" />
		<path class="st1" d="M197,371.3c5-5.6,7-10.4,7-16.7c0-10.6-7.1-19.8-17.2-22.6c-2.8-0.7-5.2-1-10.5-1h-9.1c-5.2,0-7.4,0.7-9.8,2.9
		c-2.5,2.3-3.5,4.9-3.5,9.6v40.5c0,4.1,0.8,7,2.6,9.3c2,2.5,5.2,3.9,8.5,3.9c6,0,10.6-4.7,10.6-10.9v-9l9,14.9c2,3.2,5.1,5,9,5
		c6.1,0,10.8-4.6,10.8-10.6c0-2.3-0.7-4.8-2.1-7L197,371.3z M175.4,351c1,0.1,1.8,0.1,2.3,0.1c3.2-0.1,5,1.2,5,3.5
		c0,2.4-1.7,3.5-4.9,3.4h-1.5h-0.9V351z" />
		<path class="st1" d="M274.5,377.5c0-5.6-5.1-10.6-10.8-10.6c-2.8,0-5.7,1.3-7.5,3.2l-2.3,2.4c-2.6,2.8-6.1,4.3-9.6,4.3
		c-7.1,0-12.8-5.7-12.8-12.8c0-7.2,5.7-12.8,12.9-12.8c3.5,0,7,1.4,9.3,3.9l3.2,3.4c1.5,1.6,4.2,2.7,6.8,2.7c6,0,10.8-4.9,10.8-10.8
		c0-4.3-2.7-8.8-8-13c-6.3-5.2-14-8-22-8c-19.2,0-34.9,15.5-34.9,34.6c0,19,15.6,34.4,34.8,34.4c8.4,0,16.5-3.2,22.9-8.7
		C272,385.6,274.5,381.4,274.5,377.5" />
		<path class="st1" d="M302.6,388h20.1c3.1,6.7,6,9.1,11,9.1c6,0,10.9-4.8,10.9-10.7c0-1.7-0.4-3.5-1.3-5.2L322.7,337
		c-2-4.1-5.7-6.6-10.2-6.6c-4.3,0-8.1,2.4-9.9,6.5l-20.6,43.6c-0.9,1.9-1.4,3.8-1.4,5.7c0,6.1,4.7,10.8,10.7,10.8
		C296.6,397.1,299.9,394.4,302.6,388 M309.2,372.4l3.3-7.9l3.4,7.9H309.2z" />
		<path class="st1" d="M362.3,330.9c-6.3,0-10.3,2.5-11.9,7.2c-0.5,1.5-0.5,2.1-0.5,7.6v36.1c0,4.5,0,5.6,0.4,7.1
		c0.7,2.6,2.1,4.3,4.5,5.9c2,1.4,4,1.8,9.2,1.8h9.1c4.5,0,8.5-0.3,11.1-0.8c5.7-1.2,11.2-4,15.5-8c6.7-6.2,10.5-15.1,10.5-24.1
		c0-9.4-3.9-18.3-10.8-24.4c-6.4-5.7-14-8.4-23.8-8.4H362.3z M371.5,351.1h1.8c4,0,6.3,0.4,8.4,1.4c4.2,2.1,7,6.5,7,11.3
		c0,4-2.1,8.1-5.3,10.4c-2.5,1.8-4.3,2.1-11.8,2.2V351.1z" />
		<path class="st1" d="M416.2,363.4c0,19.4,15.4,34.9,34.7,34.9c19,0,34.6-15.6,34.6-34.6c0-19-15.5-34.4-34.7-34.4
		C431.6,329.3,416.2,344.5,416.2,363.4 M438,363.7c0-7,5.8-12.6,12.9-12.6c7.1,0,12.9,5.7,12.9,12.7c0,7.1-5.8,13-12.9,13
		C443.8,376.8,438,370.9,438,363.7" />
		<path class="st1" d="M528.2,355.9l-17.2-21.2c-2.5-3.1-4.9-4.3-8.1-4.3c-6.8,0-11.3,4.6-11.3,11.6v41.5c0,4.8,0.5,6.8,2.3,9.3
		c2.1,2.7,5.3,4.2,8.7,4.2c3.3,0,6.3-1.5,8.4-3.9c1.9-2.4,2.5-4.3,2.5-8.7v-13.8l17.1,22c2.3,3,5.1,4.4,8.6,4.4c3.3,0,6.5-1.5,8.5-4
		c1.9-2.5,2.4-4.6,2.4-9.9V343c0-4-0.7-6.3-2.6-8.7c-2.1-2.5-5-3.9-8.3-3.9c-3.6,0-7,1.9-8.9,4.7c-1.6,2.3-2,4.3-2,8.6V355.9z" />
		<path class="st1" d="M578.1,388h20.1c3,6.7,6,9.1,11,9.1c6,0,10.9-4.8,10.9-10.7c0-1.7-0.4-3.5-1.3-5.2L598.2,337
		c-2-4.1-5.7-6.6-10.1-6.6c-4.3,0-8.1,2.4-9.9,6.5l-20.6,43.6c-0.9,1.9-1.4,3.8-1.4,5.7c0,6.1,4.7,10.8,10.7,10.8
		C572.1,397.1,575.3,394.4,578.1,388 M584.7,372.4l3.3-7.9l3.3,7.9H584.7z" />
	</g>
</svg>
