<svg xmlns="http://www.w3.org/2000/svg" width="27.963" height="29.131">
	<path id="Union_4" data-name="Union 4" d="M7.076 28.565a.919.919 0 01.489-1.2l.247-.1A14.211 14.211 0 01.59 10.523 14.04 14.04 0 0114.251.447a.916.916 0 01-.017 1.832h-.258a12.314 12.314 0 00-10.7 18.138A12.137 12.137 0 008.57 25.6l-.142-.345a.92.92 0 01.49-1.2.9.9 0 011.185.494l.961 2.336v.006a.927.927 0 01.051.17 1.014 1.014 0 01.017.174.955.955 0 01-.016.175c-.005.028-.013.055-.021.083s-.013.034-.02.052-.005.023-.011.034l-.012.023a.861.861 0 01-.056.107c-.008.013-.014.026-.023.039a.906.906 0 01-.1.129l-.005.005a.889.889 0 01-.119.1c-.014.01-.029.018-.044.027a.9.9 0 01-.1.055c-.009 0-.017.01-.026.013l-2.316.973a.879.879 0 01-.347.071.906.906 0 01-.84-.556zm6.527-.627a2.813 2.813 0 01-.946-2.09l-.014-2.32a8.79 8.79 0 01-5.119-2.333A8.974 8.974 0 014.7 15.366a1.092 1.092 0 01.279-.824 1.066 1.066 0 01.788-.35h15.548a1.068 1.068 0 01.789.35 1.092 1.092 0 01.279.824 8.977 8.977 0 01-2.82 5.829 8.794 8.794 0 01-5.107 2.332l.013 2.309a.977.977 0 00.327.722.912.912 0 00.728.226 12.224 12.224 0 0010.112-8.672 12.366 12.366 0 00-6.243-14.544l.171.416a.919.919 0 01-.489 1.2.882.882 0 01-.347.071.907.907 0 01-.838-.565l-.99-2.413v-.012a1.05 1.05 0 01-.025-.073l-.008-.032-.014-.056c-.004-.019 0-.026-.006-.04s0-.032-.006-.049 0-.029 0-.043v-.136c0-.014 0-.035.007-.052l.005-.037c0-.022.011-.043.016-.065l.005-.022c.008-.027.017-.053.027-.079s.019-.042.03-.063l.01-.023.033-.056a.154.154 0 00.012-.021l.035-.048.018-.024.033-.039.026-.029.031-.029c.012-.011.023-.022.035-.031l.03-.023.041-.031c.013-.009.027-.016.041-.024l.035-.022c.013-.007.053-.027.08-.039l2.389-1a.9.9 0 011.185.5.92.92 0 01-.49 1.2l-.32.135a14.211 14.211 0 017.222 16.74A14.045 14.045 0 0115.755 28.6a2.635 2.635 0 01-.347.022 2.732 2.732 0 01-1.808-.684zm-.058-6.529a6.787 6.787 0 006.5-5.051h-13a6.789 6.789 0 006.499 5.051zm-5.162-9.84V7.413a1.072 1.072 0 112.143 0v4.156a1.072 1.072 0 11-2.143 0zm8.059-.062V7.413a1.072 1.072 0 112.143 0v4.094a1.072 1.072 0 11-2.143 0z" fill="#006f3f" />
</svg>
